/* XPM */
static char * door_open_xpm[] = {
"32 32 82 1",
" 	c #636363",
".	c #616161",
"+	c #606060",
"@	c #626262",
"#	c #6D6D6D",
"$	c #747474",
"%	c #767676",
"&	c #6F6F6F",
"*	c #727272",
"=	c #646464",
"-	c #5E5E5E",
";	c #5C5C5C",
">	c #5D5D5D",
",	c #595959",
"'	c #5B5B5B",
")	c #555555",
"!	c #5A5A5A",
"~	c #696969",
"{	c #6A6A6A",
"]	c #717171",
"^	c #575757",
"/	c #666666",
"(	c #6B6B6B",
"_	c #565656",
":	c #545454",
"<	c #5F5F5F",
"[	c #656565",
"}	c #707070",
"|	c #686868",
"1	c #585858",
"2	c #535353",
"3	c #676767",
"4	c #4D4D4D",
"5	c #515151",
"6	c #6C6C6C",
"7	c #0C0707",
"8	c #000000",
"9	c #383838",
"0	c #808080",
"a	c #4E4E4E",
"b	c #6E6E6E",
"c	c #2A1919",
"d	c #404040",
"e	c #505050",
"f	c #303030",
"g	c #181818",
"h	c #160D0D",
"i	c #282828",
"j	c #101010",
"k	c #080808",
"l	c #484848",
"m	c #787878",
"n	c #7B4F4F",
"o	c #452B2B",
"p	c #1F1313",
"q	c #4F4F4F",
"r	c #724949",
"s	c #331F1F",
"t	c #3C2525",
"u	c #573737",
"v	c #291919",
"w	c #202020",
"x	c #525252",
"y	c #F6B42F",
"z	c #603D3D",
"A	c #F7B93E",
"B	c #FAC86B",
"C	c #F9C35C",
"D	c #4B4B4B",
"E	c #BE8408",
"F	c #4E3131",
"G	c #3B2525",
"H	c #F4AA11",
"I	c #311F1F",
"J	c #341A1A",
"K	c #FBD389",
"L	c #F5AF2F",
"M	c #EBA20B",
"N	c #5F3D3D",
"O	c #735104",
"P	c #341F1F",
"Q	c #020101",
" .+. .@+#$%&*=-;>,@')!,. ~+> {&]",
"=-^!@/ ' #](=,^),-'_):,<[@<+={}}",
"!+;,-|@;>~~(<>^@--12_^,>=/[--@3]",
"@';++[@!;3(({<=(=->)>:2:..> =!-.",
"<@<+--'<[~{# <.(|=-_)45>, =[[,'@",
"!2<@+_'/[((67891}0}|4a'<=/6b3;1:",
",!-':_@|{{{3ccdef+dge)!- @~|.>'>",
"1 3>^.[={~ ,hcij|kg}lm-@-+[ <^; ",
">=3|<-#{~+@hnop88888e+f !,,1,-+'",
"q' {[>;>[  7ros888888lm;^!,^!><'",
",!-..!!;@68tustv888888fw^;e11> 1",
"!<-+')>'~{8tuttv8888881+,;+:_= +",
"!<;'x1-@|y8tzst7888888im</!1,>'1",
"_)_^;++/{ABCusth888888gj^!-'+!'>",
"DDq: /{{{Eptutt8888888iw;[^>;'>2",
")e:> +|~6=htuso8888888wi<:,.=;_-",
"'2, ~|{=@+hutFGv888888ff+!>+~# <",
"' [=~/|='1htuFtp888888ii!^=.({6{",
"=[33/@=,> htt7op888888gw,1=|||6{",
"[33[[-_,<3votCtp888888if<<<[| =>",
" 3//{;!x/@putHIp8888889w(+. .= ,",
"[/ >>x1:-=pFtyJ7888888ji<~-=[!'-",
"!.@ +,;^-;pottt8888888gi+>3.+<;-",
"^-;!+@@.__pFhsuh888888jg<= >1-3.",
"2'_!+@,@@_7FtvFp888888gi!'@,>.&#",
")q1@-<--+-7FtpFs888888gj.!:1<[(&",
"_:,>!)>!.;7Ftvov888888gi.!^! <#b",
"'!>+;.;';K7Ftvtv888888ww;[-',.=6",
"^;!><3<3!yLMtNtv888888fg!-<.^)@{",
"1!^1/~{(/O8ttPtQ888888ig>;^,-<,@",
"^;!+.6(#/-8otvtv888888fi[1^',><@",
",1>.6b&&b~Qvh78v888888wf6[.''2 ["};
