/* XPM */
static char * door_close_xpm[] = {
"32 32 75 1",
" 	c #636363",
".	c #616161",
"+	c #606060",
"@	c #626262",
"#	c #6D6D6D",
"$	c #747474",
"%	c #767676",
"&	c #6F6F6F",
"*	c #727272",
"=	c #646464",
"-	c #5E5E5E",
";	c #5C5C5C",
">	c #5D5D5D",
",	c #595959",
"'	c #5B5B5B",
")	c #555555",
"!	c #5A5A5A",
"~	c #696969",
"{	c #6A6A6A",
"]	c #717171",
"^	c #575757",
"/	c #666666",
"(	c #6B6B6B",
"_	c #565656",
":	c #545454",
"<	c #5F5F5F",
"[	c #656565",
"}	c #707070",
"|	c #686868",
"1	c #585858",
"2	c #535353",
"3	c #676767",
"4	c #4D4D4D",
"5	c #515151",
"6	c #6C6C6C",
"7	c #160D0D",
"8	c #0C0707",
"9	c #000000",
"0	c #4E4E4E",
"a	c #6E6E6E",
"b	c #291919",
"c	c #452B2B",
"d	c #3C2525",
"e	c #331F1F",
"f	c #4E3131",
"g	c #7B4F4F",
"h	c #4F4F4F",
"i	c #724949",
"j	c #020101",
"k	c #573737",
"l	c #505050",
"m	c #1F1313",
"n	c #525252",
"o	c #F6B42F",
"p	c #603D3D",
"q	c #F7B93E",
"r	c #F4AA11",
"s	c #F8BC4D",
"t	c #FAC86B",
"u	c #F9C35C",
"v	c #FBD389",
"w	c #4B4B4B",
"x	c #BE8408",
"y	c #EBA20B",
"z	c #916605",
"A	c #3B2525",
"B	c #311F1F",
"C	c #341A1A",
"D	c #FCDEA7",
"E	c #FDE9C5",
"F	c #F4B33E",
"G	c #F8BE4D",
"H	c #F5AF2F",
"I	c #AF7A07",
"J	c #735104",
" .+. .@+#$%&*=-;>,@')!,. ~+> {&]",
"=-^!@/ ' #](=,^),-'_):,<[@<+={}}",
"!+;,-|@;>~~(<>^@--12_^,>=/[--@3]",
"@';++[@!;3(({<=(=->)>:2:..> =!-.",
"<@<+--'<[~{# <.(|=-_)45>, =[[,'@",
"!2<@+_'/[((6[378999740'<=/6a3;1:",
",!-':_@|{{{3 bcdedfd9)!- @~|.>'>",
"1 3>^.[={~ ,7ecdedcdb9-@-+[ <^; ",
">=3|<-#{~+@7gedc97cdbc9 !,,1,-+'",
"h' {[>;>[  8iede7j7dec9;^!,^!><'",
",!-..!!;@69dkedjed8dded9^;l11> 1",
"!<-+')>'~{9dke9bdebmddd9,;+:_= +",
"!<;'n1-@|o9dpejcdec7dedb</!1,>'1",
"_)_^;++/{qrqstutved7dedb^!-'+!'>",
"wwh: /{{{xmdk8yddebmddd7;[^>;'>2",
")l:> +|~6=7dkbdzrbd9dece<:,.=;_-",
"'2, ~|{=@+7kdeddde9gdfAe+!>+~# <",
"' [=~/|='17dkebddemcdfdd!^=.({6{",
"=[33/@=,> 7dfedcd89fdccb,1=|||6{",
"[33[[-_,<3bcdbjjdb7eucdm<<<[| =>",
" 3//{;!n/@mkdb9cddeuryBj(+. .= ,",
"[/ >>n1:-=mfbebcddbeofCj<~-=[!'-",
"!.@ +,;^-;mcdb8mdededdd9+>3.+<;-",
"^-;!+@@.__mfdedd7edbdek7<= >1-3.",
"2'_!+@,@@_8fdedcde8bdbf7!'@,>.&#",
")h1@-<--+-8fdbb8ddf77mfm.!:1<[(&",
"_:,>!)>!.;8fdecDEdfe8mcm.!^! <#a",
"'!>+;.;';v8fdeueeb87dmdm;[-',.=6",
"^;!><3<3!oFtGHyIIdkmed9b!-<.^)@{",
"1!^1/~{(/J9d9ecdddcde9em>;^,-<,@",
"^;!+.6(#/-9cdb78ddccmbd7[1^',><@",
",1>.6a&&a~jb7m978jjj9j796[.''2 ["};
