/* XPM */
static char * key_xpm[] = {
"32 32 184 2",
"  	c #676767",
". 	c #656565",
"+ 	c #636363",
"@ 	c #5A5A5A",
"# 	c #616161",
"$ 	c #686868",
"% 	c #646464",
"& 	c #595959",
"* 	c #5B5B5B",
"= 	c #626262",
"- 	c #585858",
"; 	c #6A6A6A",
"> 	c #6B6B6B",
", 	c #6E6E6E",
"' 	c #727272",
") 	c #747474",
"! 	c #737373",
"~ 	c #717171",
"{ 	c #6C6C6C",
"] 	c #707070",
"^ 	c #5D5D5D",
"/ 	c #5F5F5F",
"( 	c #606060",
"_ 	c #5E5E5E",
": 	c #575757",
"< 	c #666666",
"[ 	c #5C5C5C",
"} 	c #706C64",
"| 	c #777164",
"1 	c #BDA455",
"2 	c #C7AC58",
"3 	c #A49260",
"4 	c #78746B",
"5 	c #6F6D68",
"6 	c #6F6F6F",
"7 	c #6D6D6D",
"8 	c #535353",
"9 	c #A1946B",
"0 	c #F8D96A",
"a 	c #F7D142",
"b 	c #FDD53E",
"c 	c #FED63D",
"d 	c #F4CE3F",
"e 	c #F3CD3E",
"f 	c #D3B449",
"g 	c #67645E",
"h 	c #696969",
"i 	c #757575",
"j 	c #716E67",
"k 	c #F3D155",
"l 	c #C9AE54",
"m 	c #6E695C",
"n 	c #A49058",
"o 	c #CBAD46",
"p 	c #706A5E",
"q 	c #988653",
"r 	c #E1BF39",
"s 	c #98854F",
"t 	c #726F68",
"u 	c #D6BA50",
"v 	c #7D7970",
"w 	c #626261",
"x 	c #6A665F",
"y 	c #616160",
"z 	c #B79E4E",
"A 	c #9A8750",
"B 	c #6A6864",
"C 	c #D4BA5F",
"D 	c #C4AF67",
"E 	c #7A776D",
"F 	c #9C8B5C",
"G 	c #BEA244",
"H 	c #686459",
"I 	c #988656",
"J 	c #D5B438",
"K 	c #84785A",
"L 	c #6E6B64",
"M 	c #D1B85F",
"N 	c #FADF76",
"O 	c #F1D46B",
"P 	c #DEBB38",
"Q 	c #E3BF39",
"R 	c #D7B637",
"S 	c #81744F",
"T 	c #737068",
"U 	c #C7B270",
"V 	c #F9E38C",
"W 	c #E4C349",
"X 	c #C1A542",
"Y 	c #7F724E",
"Z 	c #565656",
"` 	c #767676",
" .	c #C7B472",
"..	c #D8B73D",
"+.	c #66635C",
"@.	c #777777",
"#.	c #4E4E4E",
"$.	c #B8A45F",
"%.	c #D0AF37",
"&.	c #5B5852",
"*.	c #515151",
"=.	c #787878",
"-.	c #525252",
";.	c #4F4F4F",
">.	c #B6A15A",
",.	c #5B5953",
"'.	c #505050",
").	c #555555",
"!.	c #B8A35D",
"~.	c #D0AF38",
"{.	c #66645E",
"].	c #545454",
"^.	c #6B6964",
"/.	c #BDAB6D",
"(.	c #D1B13C",
"_.	c #696661",
":.	c #C4B47B",
"<.	c #DDC261",
"[.	c #6C6A65",
"}.	c #C4B57C",
"|.	c #E1C663",
"1.	c #6E6B66",
"2.	c #C7B77F",
"3.	c #E4C963",
"4.	c #706D67",
"5.	c #C8B576",
"6.	c #E4C553",
"7.	c #726F69",
"8.	c #C1AC65",
"9.	c #E3C03C",
"0.	c #B9A45C",
"a.	c #D0B037",
"b.	c #67645C",
"c.	c #E6C856",
"d.	c #E5C238",
"e.	c #A59056",
"f.	c #666259",
"g.	c #E5C64E",
"h.	c #E5C237",
"i.	c #9B8852",
"j.	c #6E6B63",
"k.	c #E4C346",
"l.	c #D9B734",
"m.	c #97844A",
"n.	c #A7986D",
"o.	c #F2D150",
"p.	c #E8C337",
"q.	c #C5A842",
"r.	c #656360",
"s.	c #A4966D",
"t.	c #E3C55B",
"u.	c #E7C339",
"v.	c #A6904E",
"w.	c #6A6966",
"x.	c #BFA95E",
"y.	c #E4C03C",
"z.	c #746E62",
"A.	c #656564",
"B.	c #686359",
"C.	c #C6AF62",
"D.	c #E7C33A",
"E.	c #E2BF3A",
"F.	c #CAAD4E",
"G.	c #F1CC40",
"H.	c #666157",
"I.	c #BDA860",
"J.	c #E1BE38",
"K.	c #E6C237",
"L.	c #FDD53D",
"M.	c #AC9448",
"N.	c #575756",
"O.	c #C5AF65",
"P.	c #E7C74F",
"Q.	c #D1B036",
"R.	c #C8AC4F",
"S.	c #EAC640",
"T.	c #68645C",
"U.	c #C3B277",
"V.	c #E1C662",
"W.	c #6C6659",
"X.	c #5F5F5E",
"Y.	c #6E6A61",
"Z.	c #676561",
"`.	c #6F6C66",
"  . + . @ # $ % & * = * - # ; % # > , , ' ) ! ~ { > ] { = ^ # # ",
"^ * @ / ^ = $ > . * @ ^ +   > {   > , ] ! ) ' $ ( ( > = _ # / ( ",
"_ : & @ ^ / . { > < [ * } | 1 2 3 4 5 % 6 ' 7 # _     % / # = / ",
"# 8 : [ * ( $ 6 ' ] + 9 0 a b c d e f g + > + [ ( +   = ( ( * / ",
"^ @ [ [ ( + h ~ i 6 j k l m n o p q r s _ ^ = _ @ < $ / * / ( [ ",
"# h $ ( / +   6 { + t u v < w x [ y z A   # _ * = . ; h + ^ # # ",
"; 7 >   = / + = % = B C D E F G H I J K < _ # < < + h , h % 6 ] ",
"h h h < # # # + _ ( + L M N O P Q R S = + # { ~ ~ ; > ' , 6 ' ' ",
"  . + ^ [ / = ( ^ _ + ^ T U V W X Y Z _ = # # , ) ] ' i ` ! ~ ] ",
"= / @ - [ & # _ ^ / * % ; $  ...+.8 8 _ <   * + 7   ~ @.@.) ] 7 ",
"[ #.8 ( . _ : - ( @ ( $ $ / $.%.&.*.& ( % + * ( % < ' =.@.) ~ $ ",
"-.;.;.@ + = @ Z = . # . = & >.%.,.'.@ [ & & _ ^ % ~ =.) ] ' ; _ ",
"'.-.8 *.& & ).- ^ / @ #   @ !.~.{.[ Z * @ : # & = 7 ] % . % & Z ",
"8 '.'.8 ].).].].& & _ < $ [ >.~.^.< ( [ _ * [ * * # = * ( - @ ).",
"*.'.*.& [ ).Z *.*._ < ; % [ /.(._.h   # * / * ^ ( & * _ @ * @ * ",
"@ ].@ _ # ^ / ^ ^ < $ = ^ * :.<.[.{ ; ( ^ . h < $ # * _ ( @ : + ",
"< ( Z [ = [ / + < < / [ . < }.|.1.h + / /     . ; { = / @ @ # $ ",
"h # : *.- -.: = . = & *   { 2.3.4.< + . = + / * % , 7   _ = $ h ",
"  ^ - - 8 '.8 - / / _ * _ $ 5.6.7.{ . / = _ ( / [ . 6 , ; > h ; ",
". ^ % + @ '.: ].: _ _ ( @ ( 8.9.4.$ * * * [ $ { . ^ < , , 7 { > ",
"> > $ . * @ : - & ^ [ ^ _ / 0.a.4.< ^ ^ ^ [ % 7 7 # / + h { 7 7 ",
"' ~ < ^ ^ _ & & @ / < % _ b.c.d.e.h % [ [ [ ^ $ 7 . / & ( h $ ; ",
"' ~ + * / / [ * * % 7 { + f.g.h.i.( = . _ @ ^ + = = . ( * # = / ",
"{ < # # _ / _ [ < 6 ] ~ , j.k.l.m./ % 7 < @ & _ _ % > h < ( # # ",
". / = _ + _ % { ] ~ ' ! ! n.o.p.q.r.h < # _ * @ = > { { {   .   ",
"< + ( _ +   h ' ! ! ) ) ! s.t.u.v.w.. * @ - @ / $ { 7 ] ~ ] 7 < ",
"/ _ . $ . % 7 , ] ! ' ! ~ . x.y.z.A.B.Z * * ).[ $ 7 6 ' ' ' > ; ",
"# + .   6   < < < 7 ; 6 > = C.D.E.F.G.H.: [ @ Z ( { ] ] ' ! { 6 ",
"= = . ] ` ~ < + # =     < % I.J.K.L.M.N.& ( _ : * + { 7 6 ! i ` ",
"[ / , i '   h h / + = + > % O.P.Q.R.S.T.= / - Z Z * # $ + 6 ` =.",
"/ ( { ' { h ~ ! < # % < $ $ U.V.W.X.Y.h . ^ -.-.Z ^ < $ (   ~ ` ",
"[ _ / = + > ] 6 + ( $ $ = # Z.`._ * ( $ * ).@ - ).: < ;   + ( 7 "};
