/* XPM */
static char * move_a_xpm[] = {
"22 32 271 2",
"  	c #686868",
". 	c #6E6E6E",
"+ 	c #696969",
"@ 	c #636363",
"# 	c #585858",
"$ 	c #5B5B5B",
"% 	c #6A6A6A",
"& 	c #6C6C6C",
"* 	c #6B6B6B",
"= 	c #6D6D6D",
"- 	c #757575",
"; 	c #747474",
"> 	c #6F6F6F",
", 	c #5C5C5C",
"' 	c #626262",
") 	c #666666",
"! 	c #595959",
"~ 	c #5A5A5A",
"{ 	c #656565",
"] 	c #5E5E5D",
"^ 	c #5E5E5E",
"/ 	c #585857",
"( 	c #646464",
"_ 	c #707070",
": 	c #5D5D5D",
"< 	c #5F5F5F",
"[ 	c #676767",
"} 	c #737373",
"| 	c #2D2D2A",
"1 	c #1D1D19",
"2 	c #232320",
"3 	c #22221E",
"4 	c #555555",
"5 	c #616161",
"6 	c #727272",
"7 	c #767676",
"8 	c #606060",
"9 	c #171711",
"0 	c #292927",
"a 	c #777777",
"b 	c #4D4D4C",
"c 	c #2F2F2D",
"d 	c #45463F",
"e 	c #496712",
"f 	c #62881A",
"g 	c #496615",
"h 	c #3B342E",
"i 	c #282825",
"j 	c #494949",
"k 	c #5C6E24",
"l 	c #C0F068",
"m 	c #95C938",
"n 	c #739D25",
"o 	c #545626",
"p 	c #414430",
"q 	c #626261",
"r 	c #353534",
"s 	c #535352",
"t 	c #717171",
"u 	c #262016",
"v 	c #74A021",
"w 	c #8EC22C",
"x 	c #8BBF28",
"y 	c #6D9820",
"z 	c #678E1F",
"A 	c #4C532A",
"B 	c #5A5A59",
"C 	c #5C5C5B",
"D 	c #41413F",
"E 	c #536E1D",
"F 	c #6B9421",
"G 	c #8CC12B",
"H 	c #8ABF27",
"I 	c #6F922C",
"J 	c #5D7223",
"K 	c #83B326",
"L 	c #638A1C",
"M 	c #374A18",
"N 	c #575757",
"O 	c #383A34",
"P 	c #8CB741",
"Q 	c #BAEB62",
"R 	c #98C942",
"S 	c #688F21",
"T 	c #7EAB2A",
"U 	c #83B624",
"V 	c #546A26",
"W 	c #525351",
"X 	c #314A08",
"Y 	c #A18A3A",
"Z 	c #DECB3F",
"` 	c #87BC23",
" .	c #6F9B1F",
"..	c #473E26",
"+.	c #252422",
"@.	c #545454",
"#.	c #56722A",
"$.	c #A7D653",
"%.	c #7CAE22",
"&.	c #8EC332",
"*.	c #A8D657",
"=.	c #5D7628",
"-.	c #3F4121",
";.	c #565656",
">.	c #4E4735",
",.	c #4E5029",
"'.	c #61851D",
").	c #89BD26",
"!.	c #586C29",
"~.	c #272717",
"{.	c #493A23",
"].	c #342618",
"^.	c #515150",
"/.	c #525252",
"(.	c #383838",
"_.	c #B6E462",
":.	c #84B22B",
"<.	c #232010",
"[.	c #16160C",
"}.	c #4B3C24",
"|.	c #7D6347",
"1.	c #776044",
"2.	c #41372A",
"3.	c #535353",
"4.	c #505050",
"5.	c #3D3C3D",
"6.	c #6B961D",
"7.	c #4B4625",
"8.	c #11120A",
"9.	c #3C2F1C",
"0.	c #594930",
"a.	c #A7815C",
"b.	c #C19665",
"c.	c #6A5437",
"d.	c #4F4F4F",
"e.	c #3C3B3B",
"f.	c #466214",
"g.	c #16190A",
"h.	c #3C301C",
"i.	c #4F3F26",
"j.	c #70583D",
"k.	c #73593E",
"l.	c #454E27",
"m.	c #39481A",
"n.	c #4F4F4E",
"o.	c #312817",
"p.	c #342417",
"q.	c #4E3E25",
"r.	c #57462E",
"s.	c #846749",
"t.	c #382C1B",
"u.	c #6A9122",
"v.	c #6E8D32",
"w.	c #45403D",
"x.	c #453928",
"y.	c #58452D",
"z.	c #8B6E4D",
"A.	c #9D7957",
"B.	c #635038",
"C.	c #291A11",
"D.	c #55582A",
"E.	c #C2F269",
"F.	c #322218",
"G.	c #18160D",
"H.	c #745E42",
"I.	c #5F4D33",
"J.	c #514128",
"K.	c #2B1B12",
"L.	c #2E3D10",
"M.	c #B3E45A",
"N.	c #456112",
"O.	c #3D3425",
"P.	c #14120B",
"Q.	c #42311B",
"R.	c #58472D",
"S.	c #41341F",
"T.	c #2E3C0F",
"U.	c #8BC127",
"V.	c #3C461F",
"W.	c #444443",
"X.	c #678224",
"Y.	c #404324",
"Z.	c #A9812F",
"`.	c #6C5022",
" +	c #20140E",
".+	c #3C2D1B",
"++	c #221A11",
"@+	c #607D20",
"#+	c #759C2B",
"$+	c #413C3B",
"%+	c #32332F",
"&+	c #86B72A",
"*+	c #38291F",
"=+	c #291A13",
"-+	c #7D6247",
";+	c #39281A",
">+	c #A5C959",
",+	c #ACDE54",
"'+	c #596E1E",
")+	c #4E4E4E",
"!+	c #313130",
"~+	c #654D37",
"{+	c #352318",
"]+	c #A37E56",
"^+	c #6E583C",
"/+	c #38281B",
"(+	c #81B029",
"_+	c #81B324",
":+	c #2F420F",
"<+	c #493E30",
"[+	c #2E1E14",
"}+	c #322318",
"|+	c #886A4D",
"1+	c #83664A",
"2+	c #21220F",
"3+	c #1F270F",
"4+	c #24231E",
"5+	c #281A11",
"6+	c #2B1C12",
"7+	c #21160E",
"8+	c #2B1A11",
"9+	c #2C1B12",
"0+	c #1E1911",
"a+	c #494A4A",
"b+	c #8D6D4E",
"c+	c #84664A",
"d+	c #66533B",
"e+	c #020A05",
"f+	c #987551",
"g+	c #A27D55",
"h+	c #69543C",
"i+	c #403321",
"j+	c #52412E",
"k+	c #3B301D",
"l+	c #404140",
"m+	c #604B36",
"n+	c #6C523B",
"o+	c #4C3E2C",
"p+	c #4D4D4D",
"q+	c #5B5B5A",
"r+	c #1B140C",
"s+	c #4E3E26",
"t+	c #231E11",
"u+	c #474746",
"v+	c #281F12",
"w+	c #3A2B1A",
"x+	c #251D17",
"y+	c #2F2215",
"z+	c #423220",
"A+	c #55442C",
"B+	c #392919",
"C+	c #1D150D",
"D+	c #5E4A35",
"E+	c #69563E",
"F+	c #4D3D25",
"G+	c #1C1710",
"H+	c #383836",
"I+	c #4C3D24",
"J+	c #6A573F",
"K+	c #68553D",
"L+	c #342617",
"M+	c #5A4934",
"N+	c #BD9263",
"O+	c #937253",
"P+	c #4F3F28",
"Q+	c #1A1A15",
"R+	c #453524",
"S+	c #523F2D",
"T+	c #4E3C2B",
"U+	c #25211B",
"V+	c #515151",
"  . + @ # $ @ +   % & * . = = = - ; > @ , ' ",
"' = = % ) ! ~ { @ ) * ) ] ^ / ( _ > ( : < [ ",
". _ } }   , # < ( ~ ' | 1 2 3 4 @ + 5 ^ 5 < ",
"% 6 7 >   + > @ < 8 ! 9 ^ ^ { 0 , , 5 , # [ ",
"( > * ' { } a _ { ' < 3 b @ ( c   5 ^ ! ( ( ",
"@ 5 @ @ 5 . ; ; * d e f g h 5 i : 4 '   [ 5 ",
"' @ < < @ < . 6 j k l m n o p q r s > 6 t + ",
"8 < ^ $ ) : @ % u v w x y z A B C < { 6 ; } ",
"' 8 8 8 ^ ^ [ D E F G H I J K L M ( $ % _ = ",
"! # $ , N ) % O P Q R S T U V W [ ' $ < ) ( ",
"! ! { ' 8 + [ 8 X Y Z `  ...+.~ ^ , ^ 5 @ % ",
"N @.: ) : , ( #.$.%.&.*.=.-.c ! ;.~ 8 ! ' _ ",
"@.! < ^ N : ) >.,.'.).!.~.{.].^.~ # ' ! 8 % ",
"/./.4 # < ( % ) (._.:.<.[.}.|.1.2.^ $ : $ : ",
";.3.4.: ' +   ^ 5.6.7.8.9.0.a.b.c.d.! ^ ' ! ",
"8 , ^ { [ ) , : e.f.g.h.i.j.k.l.m.n.+ [   ( ",
"5 ( ) ) 5 $ 5 [ 5 o.p.q.r.s.t.u.v.w.  ) * = ",
"~ @ ) { $ @.( * * x.y.z.A.B.C.D.E.F.5 # @ = ",
"4.! 5 5 ~ ! : ) % G.i.H.I.J.K.L.M.N.: , , { ",
", @.~ $ 5 8 $ ! O.P.Q.R.q.S.C.T.U.V.* [ 5 : ",
";.;.@.^ ! , < W.X.Y.Z.`. +.+++@+#+$+% > & 5 ",
"@.! $ ^ @ < $ %+&+*+=+-+q.;+>+,+'+)+' & > ) ",
"# ! ! , + * { ! !+~+{+]+^+/+(+_+:+: $ ) * [ ",
", ~ $ ( . > * 5 , <+[+}+|+1+2+3+3.~ 8 ( : ^ ",
", ,   _ _ t 6 . ' 4+5+6+7+8+9+0+N # ! $ $ ( ",
"  . _ t t } ; } a+b+c+d+e+f+g+h+4.5 ! $ @ % ",
"* } } } ; - ; 6 8 i+j+k+l+m+n+o+p+# $ <   & ",
"> t t - t - - = q+r+s+t+u+v+w+x+$ N ! < + & ",
"+   { = % _ 6 ^ y+z+A+B+C+D+E+F+G+^ ! # 5 = ",
"@ @ 5 ) ) % ) H+I+J+K+L+M+N+O+P+Q+< 8 N $ [ ",
"{ [ ^ 8 ) [ { + N ! @.b R+S+T+U+8 8 ~ N N ~ ",
"> . ( ' ' 5   + ) { # # < < @ { ( ! V+3.@.$ "};
