/* XPM */
static char * move_d_xpm[] = {
"22 32 265 2",
"  	c #686868",
". 	c #6E6E6E",
"+ 	c #696969",
"@ 	c #636363",
"# 	c #585858",
"$ 	c #5B5B5B",
"% 	c #6A6A6A",
"& 	c #6C6C6C",
"* 	c #6B6B6B",
"= 	c #6D6D6D",
"- 	c #757575",
"; 	c #747474",
"> 	c #6F6F6F",
", 	c #5C5C5C",
"' 	c #626262",
") 	c #666666",
"! 	c #595959",
"~ 	c #5A5A5A",
"{ 	c #646464",
"] 	c #2C2C29",
"^ 	c #1E1E1A",
"/ 	c #1C1C17",
"( 	c #606060",
"_ 	c #707070",
": 	c #5D5D5D",
"< 	c #5F5F5F",
"[ 	c #676767",
"} 	c #737373",
"| 	c #2A2A27",
"1 	c #575757",
"2 	c #535353",
"3 	c #444443",
"4 	c #181813",
"5 	c #616161",
"6 	c #5E5E5E",
"7 	c #727272",
"8 	c #767676",
"9 	c #30302E",
"0 	c #50504F",
"a 	c #12120A",
"b 	c #656565",
"c 	c #777777",
"d 	c #363634",
"e 	c #4F4F4F",
"f 	c #302F31",
"g 	c #212124",
"h 	c #404041",
"i 	c #4C4C4B",
"j 	c #515150",
"k 	c #5C5B59",
"l 	c #473622",
"m 	c #709C1F",
"n 	c #93C833",
"o 	c #8CB542",
"p 	c #3A3B1C",
"q 	c #6A6A69",
"r 	c #4F592C",
"s 	c #648723",
"t 	c #719729",
"u 	c #9ACD3F",
"v 	c #B3E45B",
"w 	c #627C2A",
"x 	c #464645",
"y 	c #717171",
"z 	c #25291C",
"A 	c #2F3A1F",
"B 	c #535525",
"C 	c #628323",
"D 	c #87BA27",
"E 	c #8BC027",
"F 	c #87BB26",
"G 	c #68901E",
"H 	c #312C17",
"I 	c #52574D",
"J 	c #435D17",
"K 	c #719D21",
"L 	c #83B226",
"M 	c #5B6C2F",
"N 	c #78A721",
"O 	c #B5E55E",
"P 	c #8EBF36",
"Q 	c #648B20",
"R 	c #31371B",
"S 	c #5F7721",
"T 	c #77A521",
"U 	c #76A424",
"V 	c #B1A829",
"W 	c #8CA64A",
"X 	c #6B8836",
"Y 	c #262622",
"Z 	c #4E542B",
"` 	c #78A426",
" .	c #A8DB50",
"..	c #D2DD45",
"+.	c #959632",
"@.	c #6E9231",
"#.	c #515151",
"$.	c #545454",
"%.	c #26221E",
"&.	c #483922",
"*.	c #3A3E22",
"=.	c #678D22",
"-.	c #89BD26",
";.	c #82B425",
">.	c #9DC54F",
",.	c #5D7D1A",
"'.	c #565656",
").	c #555452",
"!.	c #443829",
"~.	c #58472F",
"{.	c #2A2113",
"].	c #2B2B19",
"^.	c #3B4F14",
"/.	c #86B729",
"(.	c #5F7232",
"_.	c #21201D",
":.	c #5C5C5B",
"<.	c #525252",
"[.	c #555555",
"}.	c #604A34",
"|.	c #BB9162",
"1.	c #9D7957",
"2.	c #4E3F26",
"3.	c #21170E",
"4.	c #15110B",
"5.	c #637C2E",
"6.	c #7AA52F",
"7.	c #4D4D4D",
"8.	c #505050",
"9.	c #484848",
"0.	c #4C4128",
"a.	c #735B3C",
"b.	c #9A7756",
"c.	c #594830",
"d.	c #4B3C24",
"e.	c #11110A",
"f.	c #363F15",
"g.	c #678F1E",
"h.	c #525253",
"i.	c #464646",
"j.	c #546B24",
"k.	c #5E7826",
"l.	c #40331F",
"m.	c #6F563B",
"n.	c #4F3F26",
"o.	c #4D3D25",
"p.	c #2A1D12",
"q.	c #1E1513",
"r.	c #39271B",
"s.	c #A8D657",
"t.	c #5D7524",
"u.	c #42331F",
"v.	c #84684B",
"w.	c #806447",
"x.	c #5B4A33",
"y.	c #453522",
"z.	c #2E281D",
"A.	c #3E4C1D",
"B.	c #C0F067",
"C.	c #2A3114",
"D.	c #2F1E13",
"E.	c #625037",
"F.	c #93744F",
"G.	c #B28A5D",
"H.	c #4A3825",
"I.	c #30291E",
"J.	c #4C6818",
"K.	c #8FC42C",
"L.	c #23290D",
"M.	c #20180E",
"N.	c #4E3E26",
"O.	c #6C583F",
"P.	c #4A3A24",
"Q.	c #17130B",
"R.	c #4D4C4B",
"S.	c #3A2C1D",
"T.	c #8BC127",
"U.	c #484420",
"V.	c #2A1B11",
"W.	c #312215",
"X.	c #271D12",
"Y.	c #9B762F",
"Z.	c #B08A1E",
"`.	c #433721",
" +	c #342E18",
".+	c #3F3F3F",
"++	c #688127",
"@+	c #ACD95A",
"#+	c #A2CB58",
"$+	c #42301F",
"%+	c #443620",
"&+	c #5C4932",
"*+	c #583E21",
"=+	c #3A411C",
"-+	c #84B327",
";+	c #3F3F40",
">+	c #4A6815",
",+	c #8FC42F",
"'+	c #789C2B",
")+	c #423320",
"!+	c #53442D",
"~+	c #9C7853",
"{+	c #433021",
"]+	c #413722",
"^+	c #4B611F",
"/+	c #313031",
"(+	c #597D19",
"_+	c #4C5A25",
":+	c #6A5239",
"<+	c #9B7A55",
"[+	c #503F2E",
"}+	c #453122",
"|+	c #423425",
"1+	c #1B1812",
"2+	c #2C1B12",
"3+	c #301F15",
"4+	c #1C180E",
"5+	c #19140C",
"6+	c #1A140C",
"7+	c #504028",
"8+	c #443421",
"9+	c #392C1D",
"0+	c #0F1009",
"a+	c #514028",
"b+	c #372A1C",
"c+	c #514029",
"d+	c #6F5A42",
"e+	c #A17C59",
"f+	c #8A6C4E",
"g+	c #030A06",
"h+	c #5E4C34",
"i+	c #7A6247",
"j+	c #685238",
"k+	c #171611",
"l+	c #25150E",
"m+	c #161009",
"n+	c #424242",
"o+	c #271F12",
"p+	c #41311E",
"q+	c #1C1914",
"r+	c #494746",
"s+	c #42321E",
"t+	c #3A2D1E",
"u+	c #332717",
"v+	c #4C3D24",
"w+	c #261B10",
"x+	c #363533",
"y+	c #19130C",
"z+	c #55442C",
"A+	c #80664A",
"B+	c #997854",
"C+	c #2F251A",
"D+	c #493922",
"E+	c #6F5B42",
"F+	c #5F4D34",
"G+	c #504026",
"H+	c #3E3F3E",
"I+	c #392B1D",
"J+	c #8F6E50",
"K+	c #957253",
"L+	c #6B523A",
"M+	c #2A2926",
"N+	c #2B2925",
"O+	c #2C2A26",
"P+	c #292824",
"  . + @ # $ @ +   % & * . = = = - ; > @ , ' ",
"' = = % ) ! ~ { ] ^ / ' % % ( { _ > { : < [ ",
". _ } }   , # | 1 2 3 4 ~ 5 5 : @ + 5 6 5 < ",
"% 7 8 >   + > 9 < ( 0 a 6 6 ) 5 , , 5 , # [ ",
"{ > * ' b } c d b e f g h ( { +   5 6 ! { { ",
"@ 5 @ @ 5 e i j k l m n o p , ) ' 5 '   [ 5 ",
"' @ < < @ < = q r s t u v w x b < { > 7 y + ",
"( < 6 $ ) : z A B C D E F G H @ ' < b 7 ; } ",
"' ( ( ( 6 6 I J K L M N O P Q h { { $ % _ = ",
"! # $ , 1 ) % ' R S T U V W X ~ % ' $ < ) { ",
"! ! b ' ( + [ ( Y Z `  ...+.@.#.6 , 6 5 @ % ",
"1 $.: ) : , b 6 %.&.*.=.-.;.>.,.'.~ ( ! ' _ ",
"$.! < 6 1 : ).!.~.{.].^./.(._.:., # ' ! ( % ",
"<.<.[.# < @ }.|.1.2.3.4.5.6.7.~ , 6 $ : $ : ",
"'.2 8.: ' 9.0.a.b.c.d.e.f.g.h.$ $ 5 ! 6 ' ! ",
"( , 6 b [ i.j.k.l.m.n.o.p.q.< ~ 5 % + [   { ",
"5 { ) ) 5 r.s.t.u.v.w.x.y.z.5 $ @     ) * = ",
"~ @ ) b $ A.B.C.D.E.F.G.H.I.b b 5 ' 5 # @ = ",
"8.! 5 5 ~ J.K.L.M.N.n.O.P.Q.R.< b ( : , , b ",
", $.~ $ 5 S.T.U.V.W.X.Y.Z.`. +, ( , * [ 5 : ",
"'.'.$.6 ! .+++@+#+$+%+&+*+=+-+;+'.5 % > & 5 ",
"$.! $ 6 @ < >+,+'+)+!+~+{+]+^+2 6 ! ' & > ) ",
"# ! ! , + * /+(+_+:+<+[+}+|+5 : # : $ ) * [ ",
", ~ $ { . >   1+2+3+4+5+6+7.b   < ~ ( { : 6 ",
", ,   _ _ y 6 7+8+9+0+a+b+c+~ = ' # ! $ $ { ",
"  . _ y y } < d+e+f+g+h+i+j+[.@ , 5 ! $ @ % ",
"* } } } ; - . k+l+m+n+o+p+q+5 # ! # $ <   & ",
"> y y - y - r+s+h+t+6+u+v+w+x+'.6 1 ! < + & ",
"+   b = % _ y+z+A+B+C+D+E+F+G+H+! 6 ! # 5 = ",
"@ @ 5 ) ) % '.I+J+K+L+M+N+O+P+1 '.< ( 1 $ [ ",
"b [ 6 ( ) [ b @ : < ~ # 6 , ! ! ' ( ~ 1 1 ~ ",
"> . { ' ' 5   + ) b # # < < @ b { ! #.2 $.$ "};
