/* XPM */
static char * move_w_xpm[] = {
"24 32 246 2",
"  	c #686868",
". 	c #626262",
"+ 	c #5C5C5C",
"@ 	c #5D5D5D",
"# 	c #696969",
"$ 	c #6B6B6B",
"% 	c #5F5F5F",
"& 	c #575757",
"* 	c #5E5E5E",
"= 	c #585858",
"- 	c #535353",
"; 	c #565656",
"> 	c #595959",
", 	c #646464",
"' 	c #666666",
") 	c #656565",
"! 	c #5A5A5A",
"~ 	c #676767",
"{ 	c #6A6A6A",
"] 	c #21211D",
"^ 	c #1E1E19",
"/ 	c #1E1B15",
"( 	c #5B5B5B",
"_ 	c #555555",
": 	c #545454",
"< 	c #616161",
"[ 	c #636363",
"} 	c #6D6D6D",
"| 	c #4C4C4C",
"1 	c #282825",
"2 	c #443E3C",
"3 	c #2A221D",
"4 	c #4D4D4D",
"5 	c #515151",
"6 	c #6C6C6C",
"7 	c #545352",
"8 	c #4A4A49",
"9 	c #292920",
"0 	c #434D1A",
"a 	c #1A130C",
"b 	c #25221D",
"c 	c #505050",
"d 	c #4E4E4E",
"e 	c #6E6E6E",
"f 	c #514F4F",
"g 	c #332216",
"h 	c #6E9522",
"i 	c #5A7D19",
"j 	c #363717",
"k 	c #6C9222",
"l 	c #445121",
"m 	c #606060",
"n 	c #373736",
"o 	c #25251C",
"p 	c #3A4D12",
"q 	c #86B926",
"r 	c #6A8525",
"s 	c #688224",
"t 	c #69911F",
"u 	c #24211B",
"v 	c #729E20",
"w 	c #73A020",
"x 	c #3C4E17",
"y 	c #261214",
"z 	c #8ABF27",
"A 	c #8BC027",
"B 	c #85B825",
"C 	c #8ABE27",
"D 	c #31271A",
"E 	c #3B4E17",
"F 	c #474747",
"G 	c #404041",
"H 	c #29291D",
"I 	c #729D22",
"J 	c #749C24",
"K 	c #80B124",
"L 	c #29291C",
"M 	c #3B3B3C",
"N 	c #414140",
"O 	c #5C7C20",
"P 	c #393938",
"Q 	c #232314",
"R 	c #637E2B",
"S 	c #87BA26",
"T 	c #434343",
"U 	c #2F2F2D",
"V 	c #303917",
"W 	c #678E20",
"X 	c #85B826",
"Y 	c #525352",
"Z 	c #666565",
"` 	c #433A2F",
" .	c #846747",
"..	c #5E4A32",
"+.	c #352F1C",
"@.	c #464F26",
"#.	c #618421",
"$.	c #36301D",
"%.	c #665036",
"&.	c #42392E",
"*.	c #493C30",
"=.	c #B28A5E",
"-.	c #C29665",
";.	c #705C43",
">.	c #504027",
",.	c #64523A",
"'.	c #383620",
").	c #483B30",
"!.	c #2D2618",
"~.	c #423822",
"{.	c #947353",
"].	c #55452C",
"^.	c #4F3F26",
"/.	c #5B4A31",
"(.	c #565555",
"_.	c #709034",
":.	c #B7E563",
"<.	c #283311",
"[.	c #4A3A29",
"}.	c #58472E",
"|.	c #55442C",
"1.	c #4F4E4E",
"2.	c #393839",
"3.	c #8FBA43",
"4.	c #82B02B",
"5.	c #322F29",
"6.	c #1F130C",
"7.	c #8E6F51",
"8.	c #624D33",
"9.	c #634E34",
"0.	c #765B3F",
"a.	c #33302B",
"b.	c #363537",
"c.	c #3D3123",
"d.	c #89BE26",
"e.	c #505422",
"f.	c #393837",
"g.	c #4E3B28",
"h.	c #84694A",
"i.	c #A17C59",
"j.	c #604D34",
"k.	c #41413F",
"l.	c #3D3022",
"m.	c #547618",
"n.	c #81B324",
"o.	c #393F2E",
"p.	c #271F12",
"q.	c #54432B",
"r.	c #6E5A41",
"s.	c #55442B",
"t.	c #4E3E25",
"u.	c #6D5A41",
"v.	c #363C2A",
"w.	c #3F332A",
"x.	c #69931E",
"y.	c #2C2C26",
"z.	c #1D140D",
"A.	c #463721",
"B.	c #4D4231",
"C.	c #7F642F",
"D.	c #2A2A24",
"E.	c #3E3129",
"F.	c #525252",
"G.	c #3B3A3B",
"H.	c #78A625",
"I.	c #ACDA59",
"J.	c #415426",
"K.	c #4B4B4A",
"L.	c #3D2E1C",
"M.	c #322215",
"N.	c #393424",
"O.	c #806131",
"P.	c #353020",
"Q.	c #405323",
"R.	c #424142",
"S.	c #3B3B3B",
"T.	c #799933",
"U.	c #4B641C",
"V.	c #2E3A17",
"W.	c #454646",
"X.	c #7D6044",
"Y.	c #59482F",
"Z.	c #6F5B42",
"`.	c #645239",
" +	c #454545",
".+	c #2D3A16",
"++	c #3B3A3A",
"@+	c #506731",
"#+	c #4E6918",
"$+	c #454342",
"%+	c #424241",
"&+	c #5E4931",
"*+	c #816445",
"=+	c #886B4D",
"-+	c #63523A",
";+	c #434342",
">+	c #444240",
",+	c #536935",
"'+	c #373836",
")+	c #2C1B12",
"!+	c #503F29",
"~+	c #A78157",
"{+	c #AE875A",
"]+	c #363735",
"^+	c #261B11",
"/+	c #2B1B12",
"(+	c #281911",
"_+	c #1D1D1A",
":+	c #1E1E1B",
"<+	c #2E2C29",
"[+	c #94744F",
"}+	c #382E1A",
"|+	c #51422F",
"1+	c #2B2925",
"2+	c #15140B",
"3+	c #765B40",
"4+	c #7F6447",
"5+	c #584733",
"6+	c #656665",
"7+	c #22211D",
"8+	c #281A11",
"9+	c #332316",
"0+	c #322216",
"a+	c #15130B",
"b+	c #1F1F1A",
"c+	c #1C1913",
"d+	c #453520",
"e+	c #4D3D25",
"f+	c #261A10",
"g+	c #1D1A14",
"h+	c #464543",
"i+	c #514028",
"j+	c #AF875F",
"k+	c #8B6B4E",
"l+	c #2B231D",
"m+	c #2C251F",
"n+	c #454441",
"o+	c #6F6F6F",
"p+	c #363634",
"q+	c #32312E",
"r+	c #2F2E2B",
"s+	c #2D2C29",
"t+	c #3F3F3D",
"u+	c #707070",
"v+	c #717171",
"w+	c #727272",
"  . + @ # # $ % @ & . * * = - ; & > @ , ' ) * * ",
") . ! + ~ $ $ { @ ] ^ / ( @ _ @ : - : < < @ [ , ",
"* ( % ) # { } [ | 1 % 2 3 @ ; _ 4 5 @ > [ , ) ) ",
"; ( ' ) $ $ 6 ) 7 8 9 0 a b c 4 d ( % , ' 6 e ~ ",
"; .   { { { ~ % f g h i j k l 4 _ ! * [ . #   < ",
"< ) , {   m ; n o p q r s q t u - ( % @ m ) [ % ",
"* } { # | v w x y z A B B A C D E w v F > > = > ",
"@ + @ ) [ G H I J K A A A A K J I L M & ! > & ! ",
"! ! + . 6 % ( N O z A A A A z O P ; % & + c = = ",
"_ @ ( # {   : > Q R S A A S R Q ; - @ > + m : ; ",
"= * .   # ' % T U V W X X W V n Y > > % ' ! = > ",
"m m ' { $ Z `  ...+.@.#.#.@.$.%. .&.@ & ! * ( m ",
"' { { {   *.=.-.;.>.,.'.'.,.>.;.-.=.).( ) & @ + ",
"m   # 6 c !.~.{.].^.^././.^.^.].{.~.!.| : > < , ",
"  { , (._.:.<.[.}.^.^.|.|.^.^.}.[.<.:._.1.@ m # ",
"'   , 2.3.4.5.6.7.8.9.0.0.9.8.7.6.a.4.3.b., < $ ",
". , = c.d.e.* f.g.h.i.j.j.i.h.g.k.= e.d.l.[     ",
"* ; = m.n.o.} ~ p.q.r.s.t.u.q.p.@ m v.n.m.* )   ",
"+ ! 5 w.x.y.~ 6 z.A.B.C.C.B.A.z.[ , D.x.E.m [ < ",
"F.= : G.H.I.J.K.L.M.N.O.O.P.M.L.N Q.I.H.R.* , ) ",
"> + & S.T.U.V.W.X.^.Y.Z.Z.`.^.X. +.+U.T.++~ < m ",
". . < ; @+#+$+%+&+*+=+-+-+=+*+&+;+>+#+,+, [ @ = ",
". > . . ; F.% '+)+!+~+{+{+~+!+)+]+( = ! ( . > @ ",
"% * * m * % = ^+/+(+_+F.. :+(+/+^+c ; < ! : = % ",
"_ @ ! < + @ <+[+}+|+F.@ ~ < |+}+[+1+< < ! & ! [ ",
"< + ( + + ( 2+3+4+5+c < ~ 6+5+4+3+2+F.+ ) * ( > ",
"~ % ~ ! + 7+8+9+0+a+= ) $ ) a+0+9+8+b+! * % < & ",
"# { $ ' ) c+d+>.e+f+% { e ) f+e+>.d+g+@ + & > * ",
"6 $ } ' * h+i+j+k+l+[ $ } ) m+k+j+i+n+) = & ( > ",
"e o+o+e # , p+q+r+. 6 } 6 [ > s+q+t+, 6 ) < ( ( ",
"u+u+v+v+} ' m < [ , [ [ , [ * > > ~ $ } { [ > & ",
"u+v+v+w+w+w+} < < . ) * ( _ < [ ' ~ } u+# [ % = "};
