/* XPM */
static char * player_xpm[] = {
"32 35 369 2",
"  	c #636363",
". 	c #696969",
"+ 	c #616161",
"@ 	c #626262",
"# 	c #6C6C6C",
"$ 	c #757575",
"% 	c #777777",
"& 	c #787878",
"* 	c #666666",
"= 	c #646464",
"- 	c #5A5A5A",
"; 	c #5C5C5C",
"> 	c #595959",
", 	c #5D5D5D",
"' 	c #676767",
") 	c #686868",
"! 	c #585858",
"~ 	c #5E5E5E",
"{ 	c #5F5F5F",
"] 	c #656565",
"^ 	c #606060",
"/ 	c #6D6D6D",
"( 	c #717171",
"_ 	c #727272",
": 	c #767676",
"< 	c #707070",
"[ 	c #575757",
"} 	c #535353",
"| 	c #6A6A6A",
"1 	c #6E6E6E",
"2 	c #747474",
"3 	c #6F6F6F",
"4 	c #5B5B5B",
"5 	c #282420",
"6 	c #18140C",
"7 	c #12120A",
"8 	c #444444",
"9 	c #6B6B6B",
"0 	c #555555",
"a 	c #201D18",
"b 	c #372D29",
"c 	c #4A4A4A",
"d 	c #20201D",
"e 	c #545454",
"f 	c #1B1A15",
"g 	c #565655",
"h 	c #342B27",
"i 	c #3C3B3C",
"j 	c #050009",
"k 	c #3C3C3C",
"l 	c #4C4948",
"m 	c #4D4A49",
"n 	c #31302D",
"o 	c #3A4219",
"p 	c #7EAC2A",
"q 	c #A0D346",
"r 	c #5E811D",
"s 	c #2B2315",
"t 	c #444443",
"u 	c #22221F",
"v 	c #515151",
"w 	c #565656",
"x 	c #57791A",
"y 	c #6E8C26",
"z 	c #95C837",
"A 	c #BAEA62",
"B 	c #8ABF25",
"C 	c #596823",
"D 	c #293419",
"E 	c #4B4B4B",
"F 	c #353831",
"G 	c #353930",
"H 	c #32332E",
"I 	c #1E2012",
"J 	c #78A328",
"K 	c #6B951F",
"L 	c #8ABF27",
"M 	c #8BC026",
"N 	c #7DAD23",
"O 	c #73A020",
"P 	c #515F29",
"Q 	c #242421",
"R 	c #2F322A",
"S 	c #31352B",
"T 	c #333431",
"U 	c #5D7D27",
"V 	c #62871E",
"W 	c #7CAB24",
"X 	c #53711A",
"Y 	c #7DA626",
"Z 	c #AFE056",
"` 	c #8BC027",
" .	c #8CC127",
"..	c #9FD245",
"+.	c #A5D84B",
"@.	c #555525",
"#.	c #699020",
"$.	c #75A123",
"%.	c #60851B",
"&.	c #4E5644",
"*.	c #4A4A49",
"=.	c #2D292D",
"-.	c #719B23",
";.	c #658B20",
">.	c #AAC242",
",.	c #A4CD58",
"'.	c #6D902D",
").	c #AFD35D",
"!.	c #93AA20",
"~.	c #658824",
"{.	c #485F1B",
"].	c #383738",
"^.	c #292A1F",
"/.	c #7AA729",
"(.	c #F3E84F",
"_.	c #959036",
":.	c #657B31",
"<.	c #CFC345",
"[.	c #D8DB45",
"}.	c #54632B",
"|.	c #494949",
"1.	c #535352",
"2.	c #546926",
"3.	c #6A951E",
"4.	c #83B036",
"5.	c #7BA237",
"6.	c #709D20",
"7.	c #658A23",
"8.	c #2B301D",
"9.	c #4F4F4F",
"0.	c #505050",
"a.	c #474747",
"b.	c #443E39",
"c.	c #392E1C",
"d.	c #353C1D",
"e.	c #42541E",
"f.	c #55632C",
"g.	c #4E6A19",
"h.	c #5A6E2C",
"i.	c #2B2C19",
"j.	c #1D1D0F",
"k.	c #4A3D2B",
"l.	c #383838",
"m.	c #525252",
"n.	c #5B5A5A",
"o.	c #7C6044",
"p.	c #C39765",
"q.	c #9E7957",
"r.	c #3E4622",
"s.	c #1B1412",
"t.	c #88B536",
"u.	c #B3E45B",
"v.	c #57751E",
"w.	c #31351B",
"x.	c #3D3120",
"y.	c #BB9063",
"z.	c #AE885C",
"A.	c #5F4B3A",
"B.	c #1A1910",
"C.	c #57452B",
"D.	c #B78D61",
"E.	c #745D43",
"F.	c #322917",
"G.	c #15130B",
"H.	c #3F4E1C",
"I.	c #6A941F",
"J.	c #1F1C13",
"K.	c #1A170D",
"L.	c #4F3F27",
"M.	c #937253",
"N.	c #9D7951",
"O.	c #503F28",
"P.	c #20201C",
"Q.	c #3D3B36",
"R.	c #4D522A",
"S.	c #414424",
"T.	c #604A35",
"U.	c #524229",
"V.	c #4F3F26",
"W.	c #392D1A",
"X.	c #1C240B",
"Y.	c #364C10",
"Z.	c #0E0D09",
"`.	c #4B3B24",
" +	c #67543B",
".+	c #483826",
"++	c #51572D",
"@+	c #463E24",
"#+	c #596E2F",
"$+	c #BEEE66",
"%+	c #3D5116",
"&+	c #151009",
"*+	c #84674B",
"=+	c #52422A",
"-+	c #4F3F25",
";+	c #483922",
">+	c #22170F",
",+	c #4D3E25",
"'+	c #635038",
")+	c #553F2D",
"!+	c #0A0608",
"~+	c #7B9D3C",
"{+	c #ACDD55",
"]+	c #383632",
"^+	c #4E4E4E",
"/+	c #769F2E",
"(+	c #8EBF36",
"_+	c #382C28",
":+	c #2E2B28",
"<+	c #3B281C",
"[+	c #A47E5A",
"}+	c #866B4B",
"|+	c #856649",
"1+	c #4A3A23",
"2+	c #86694C",
"3+	c #977653",
"4+	c #8C6B4D",
"5+	c #25170F",
"6+	c #3A3B39",
"7+	c #556122",
"8+	c #3F5A10",
"9+	c #342C1D",
"0+	c #87BB26",
"a+	c #5E6E25",
"b+	c #5B5B5A",
"c+	c #26231C",
"d+	c #5B472C",
"e+	c #776045",
"f+	c #8B6B4D",
"g+	c #4D3D25",
"h+	c #84684C",
"i+	c #725C40",
"j+	c #4B3C24",
"k+	c #302C22",
"l+	c #84B427",
"m+	c #6A8625",
"n+	c #414140",
"o+	c #425D13",
"p+	c #465F1A",
"q+	c #22211D",
"r+	c #463721",
"s+	c #594830",
"t+	c #493A23",
"u+	c #2C1B12",
"v+	c #55442B",
"w+	c #56462D",
"x+	c #2E1E13",
"y+	c #5C5D5C",
"z+	c #5E5D5E",
"A+	c #81B324",
"B+	c #78A722",
"C+	c #3C3B3B",
"D+	c #445135",
"E+	c #A2D349",
"F+	c #415915",
"G+	c #282019",
"H+	c #322215",
"I+	c #312F28",
"J+	c #856740",
"K+	c #B58B2E",
"L+	c #5A4C3E",
"M+	c #2A2114",
"N+	c #3C2D1B",
"O+	c #3D3C3A",
"P+	c #3B3B3B",
"Q+	c #7CA336",
"R+	c #B5E55E",
"S+	c #C1F169",
"T+	c #76943F",
"U+	c #644E34",
"V+	c #4E3E25",
"W+	c #504028",
"X+	c #916F51",
"Y+	c #332217",
"Z+	c #7E6245",
"`+	c #514027",
" @	c #3C2F1E",
".@	c #AED95F",
"+@	c #76973B",
"@@	c #4B4B4C",
"#@	c #6F9922",
"$@	c #8FC332",
"%@	c #425B14",
"&@	c #5C482F",
"*@	c #70573B",
"=@	c #886B4D",
"-@	c #AB845A",
";@	c #352317",
">@	c #AD865E",
",@	c #6C573C",
"'@	c #8D6D4E",
")@	c #302617",
"!@	c #6C9423",
"~@	c #90C432",
"{@	c #455F1A",
"]@	c #4F5449",
"^@	c #3F5813",
"/@	c #494544",
"(@	c #251910",
"_@	c #624C33",
":@	c #917250",
"<@	c #443425",
"[@	c #1E160E",
"}@	c #775E41",
"|@	c #876A4A",
"1@	c #3C2C1B",
"2@	c #18130C",
"3@	c #313017",
"4@	c #4C6A19",
"5@	c #15120A",
"6@	c #2B1B12",
"7@	c #2C1A12",
"8@	c #080D06",
"9@	c #4C4C4B",
"0@	c #2F2F2D",
"a@	c #19120A",
"b@	c #24180F",
"c@	c #414241",
"d@	c #5B472F",
"e@	c #25180F",
"f@	c #4A3827",
"g@	c #302619",
"h@	c #362618",
"i@	c #241C10",
"j@	c #503E29",
"k@	c #404140",
"l@	c #7D6140",
"m@	c #B28A5D",
"n@	c #7E6448",
"o@	c #424342",
"p@	c #423625",
"q@	c #957353",
"r@	c #B68D5E",
"s@	c #413422",
"t@	c #4F4F4E",
"u@	c #302218",
"v@	c #443526",
"w@	c #1E130C",
"x@	c #2A1B12",
"y@	c #463627",
"z@	c #2A2522",
"A@	c #271E11",
"B@	c #7E6246",
"C@	c #624F37",
"D@	c #34281B",
"E@	c #3A3A39",
"F@	c #503F2D",
"G@	c #7E6348",
"H@	c #634C34",
"I@	c #292927",
"J@	c #31312E",
"K@	c #997650",
"L@	c #9D7958",
"M@	c #735D44",
"N@	c #423324",
"O@	c #484847",
"P@	c #2E2C29",
"Q@	c #64513A",
"R@	c #8E6F51",
"S@	c #AE865E",
"T@	c #51412A",
"U@	c #302E2B",
"V@	c #725D43",
"W@	c #6D583E",
"X@	c #352D21",
"Y@	c #2B2925",
"Z@	c #4B3D27",
"`@	c #755F45",
" #	c #63513A",
"  . + @ + # $ % & $ # * =   - ; > - + + - , ' = ' ) ; @ , ! ~   ",
"{ ] * , ^ @ / ( _ : _ < ) * ^ ~ > ^ ~ , [ [ @ ) ] = } +   | | 1 ",
"+ ^ +   + @ ^ / 2 : 3 _ = ~ ; 4 5 6 7 8 - > +   . ^ ,   | 3 ( ( ",
"~ [ - @ *   4   / ( 9 = > [ 0 a b - c d e > { ] @ { ^ = | < < 2 ",
"^ ; > ~ ) @ ; , . . 9 { , [ @ f g ! } h [ > , = * ] ~ ~ @ ' ( $ ",
"4 ; ^ ^ ] @ - ; ' 9 9 | { = ~ i j k l m e 8 e + + ,   = - ~ + 3 ",
"@ { ^ ~ ~ 4 { ] . | /   ~ n o p q r s t u v , >   = ] ] > 4 @ < ",
"} { @ ^ w 4 * ] 9 9 # ] ~ x y z A B C D E 4 { = * # 1 ' ; ! e + ",
"- ~ 4 e w @ ) | = F G H I J K L M N O P Q R S T @ . ) + , 4 , + ",
"  ' , [ + ] = | * U V W X Y Z `  ...+.@.#.$.%.&.^ ]   { [ ;   ^ ",
"= ' ) { ~ / | . ^ @ *.=.-.;.>.,.'.).!.~.{.].  - > > ! > ~ ^ 4 = ",
"4   | ] , ; , ]     - [ ^./.(._.:.<.[.}.|.! ; [ - > [ - , { 4 4 ",
"- ~ + + - - ; @ # { ; ; 1.2.3.4.5.6.7.8.9.[ { [ ; 0.! ! ,   ! [ ",
"{ ~ ^ 4 0 , 4 . | ) a.b.c.d.e.f.g.h.i.j.k.l., > ; ^ e w =   ^ } ",
"{ ; 4 m.! ~ @ ) . n.o.p.q.r.s.t.u.v.w.x.y.z.A.~ * - ! > , 4 ! ; ",
"0 w [ ; ^ ^ * | = B.C.D.E.F.G.H.I.J.K.L.M.N.O.P.- ~ 4 ^ - 4 , , ",
"E 9.e   * | | | Q.R.S.T.U.V.W.X.Y.Z.`.V. +.+++@+w [ , ; 4 , } ^ ",
"0.e ,   ^ ) . @ #+$+%+&+*+=+-+;+>+-+,+'+)+!+~+{+]+> + = ; w ~ ^ ",
"} >   . ) | = ^+/+(+_+:+<+[+}+|+1+2+3+4+5+6+7+{+8+, ^ . /   { = ",
"  ] = . * ) = 9+0+a+^+b+c+d+e+f+g+h+i+j+b+) k+l+m+n++ 9 | # | . ",
"] ' ' * @ = > o+L p+* , q+r+s+t+u+v+w+x+y+{ z+A+B+C+) ) ) # | | ",
"' ' ] ] ~ w > D+E+F+@ + G+H+I+J+K+L+M+N+O+^ P+A+Q+^+] )   = ,   ",
"' * * | ; - m.0.R+S+T+, U+V+W+X+Y+Z+V.`+ @^+.@S++@+   + =   > [ ",
"*   , , m.! e @@#@$@%@~ &@*@=@-@;@>@,@'@)@^+!@~@{@~ = ] - 4 ~ > ",
"+ @   ^ > ; [ ~ ]@^@/@~ (@_@:@<@[@}@|@1@2@4 3@4@> ' + ^ { ; ~ - ",
"~ ; - ^ @ @ + w w ~ = 5@6@7@8@E 9@0@a@u+b@t ; { =   , ! ~ ' + ^ ",
"4 w - ^ @ > @ @ w } c@d@e@f@t + ) 9 g@h@i@j@! - 4 @ > , + 3 / * ",
"9.! @ ~ { ~ ~ ^ ~ { k@l@m@n@o@! . ) p@q@r@s@0 + - e ! { ] 9 3 3 ",
"e > , - 0 , - + ; , t@u@v@w@v , ' ) 9@x@y@z@+ + - [ -   { / 1 3 ",
"- , ^ ; + ; 4 ; ; @ A@B@C@D@E@+ ' 1 5@F@G@H@I@; ] ~ 4 > + = # 1 ",
"; - , { ' { ' - ; J@K@L@M@N@O@] 9 / P@Q@R@S@T@e ~ { + [ 0 @ | | ",
"- [ ! * . | 9 * ] U@V@W@X@1.' | 1 / . Y@Z@`@ #[ ; [ > ~ { > @ | ",
"; - ^ + # 9 / * ~   a.8     ' 9 / . # ^ > 0.} ] ! [ 4 > , { @ + ",
"! , + # 1 3 3 1 . = w ; 4   # / #   - w , ] = # ] + 4 4 }   ] = ",
"~ = / < < < ( ( / * ^ +   =     =   ~ > > ' 9 / |   > [ 4 4 + ] "};
