/* XPM */
static char * wall_xpm[] = {
"32 32 539 2",
"  	c None",
". 	c #2F3237",
"+ 	c #2E3136",
"@ 	c #313438",
"# 	c #1E2125",
"$ 	c #14171B",
"% 	c #191C20",
"& 	c #1D2024",
"* 	c #23262B",
"= 	c #25282D",
"- 	c #202328",
"; 	c #0E1013",
"> 	c #222325",
", 	c #1B1E22",
"' 	c #141619",
") 	c #0D1012",
"! 	c #25292D",
"~ 	c #15181B",
"{ 	c #16191E",
"] 	c #212428",
"^ 	c #24272D",
"/ 	c #14171A",
"( 	c #2B2F35",
"_ 	c #6C6D6F",
": 	c #7B7C7C",
"< 	c #585A5C",
"[ 	c #44484D",
"} 	c #25282C",
"| 	c #2D3138",
"1 	c #353A40",
"2 	c #3D4147",
"3 	c #45494F",
"4 	c #4B4E52",
"5 	c #56585B",
"6 	c #3E4043",
"7 	c #32353A",
"8 	c #5C5E61",
"9 	c #3E4044",
"0 	c #505357",
"a 	c #43464A",
"b 	c #494C51",
"c 	c #3A3E44",
"d 	c #1D2126",
"e 	c #46494E",
"f 	c #4F5256",
"g 	c #4B4E53",
"h 	c #4E5156",
"i 	c #181C20",
"j 	c #1B1D22",
"k 	c #343639",
"l 	c #717272",
"m 	c #6E6F70",
"n 	c #616265",
"o 	c #43474C",
"p 	c #3F4348",
"q 	c #484C51",
"r 	c #54575B",
"s 	c #5F6063",
"t 	c #6C6D6E",
"u 	c #707071",
"v 	c #5F6062",
"w 	c #484A4D",
"x 	c #6A6B6C",
"y 	c #535456",
"z 	c #525355",
"A 	c #56585A",
"B 	c #56585C",
"C 	c #464A4F",
"D 	c #272C33",
"E 	c #363B3F",
"F 	c #525559",
"G 	c #676869",
"H 	c #4D5055",
"I 	c #25282B",
"J 	c #666868",
"K 	c #56595C",
"L 	c #1E2226",
"M 	c #525458",
"N 	c #484B50",
"O 	c #323437",
"P 	c #2D3137",
"Q 	c #464B4F",
"R 	c #515458",
"S 	c #56575B",
"T 	c #585A5D",
"U 	c #646568",
"V 	c #717273",
"W 	c #68696A",
"X 	c #2E3032",
"Y 	c #67686A",
"Z 	c #6D6E6F",
"` 	c #626365",
" .	c #4D5155",
"..	c #4E5155",
"+.	c #474B50",
"@.	c #22262D",
"#.	c #414449",
"$.	c #6F7070",
"%.	c #727373",
"&.	c #79797A",
"*.	c #5A5B5D",
"=.	c #191C1F",
"-.	c #47494B",
";.	c #494A4C",
">.	c #0C0E12",
",.	c #0F1114",
"'.	c #42464B",
").	c #282B2F",
"!.	c #191D22",
"~.	c #282B30",
"{.	c #656668",
"].	c #616264",
"^.	c #7B7B7C",
"/.	c #7A7B7B",
"(.	c #4B4C4D",
"_.	c #6B6C6D",
":.	c #595B5F",
"<.	c #272B2F",
"[.	c #1C2027",
"}.	c #3E3F42",
"|.	c #747576",
"1.	c #6F6F70",
"2.	c #7C7C7D",
"3.	c #7F7F7F",
"4.	c #454546",
"5.	c #383C42",
"6.	c #22262A",
"7.	c #1C2024",
"8.	c #191C21",
"9.	c #0D1013",
"0.	c #24272C",
"a.	c #505153",
"b.	c #646566",
"c.	c #636465",
"d.	c #38393C",
"e.	c #3D3E40",
"f.	c #6B6C6E",
"g.	c #707171",
"h.	c #1C1E22",
"i.	c #26292E",
"j.	c #1C2025",
"k.	c #434445",
"l.	c #737474",
"m.	c #525558",
"n.	c #22252A",
"o.	c #2A2F34",
"p.	c #1D2128",
"q.	c #1C1F23",
"r.	c #454648",
"s.	c #535454",
"t.	c #3C3D40",
"u.	c #1D2127",
"v.	c #25272A",
"w.	c #484B4F",
"x.	c #393D44",
"y.	c #1F2227",
"z.	c #363A3F",
"A.	c #404347",
"B.	c #616162",
"C.	c #7D7E7E",
"D.	c #68696B",
"E.	c #343638",
"F.	c #34373B",
"G.	c #7A7A7B",
"H.	c #848585",
"I.	c #616263",
"J.	c #24282E",
"K.	c #31353B",
"L.	c #43474D",
"M.	c #373A3E",
"N.	c #3C3F42",
"O.	c #3E4146",
"P.	c #3C4046",
"Q.	c #30353B",
"R.	c #363A40",
"S.	c #2E3238",
"T.	c #171B1E",
"U.	c #2C3036",
"V.	c #3B3F43",
"W.	c #5E5F60",
"X.	c #3E4248",
"Y.	c #24282C",
"Z.	c #45494E",
"`.	c #4D5054",
" +	c #43484D",
".+	c #171A1D",
"++	c #16191C",
"@+	c #353639",
"#+	c #41454A",
"$+	c #6F7071",
"%+	c #57595C",
"&+	c #373B42",
"*+	c #45484B",
"=+	c #404449",
"-+	c #424445",
";+	c #737475",
">+	c #58595A",
",+	c #2C3034",
"'+	c #202327",
")+	c #42454A",
"!+	c #373B40",
"~+	c #494D52",
"{+	c #21242A",
"]+	c #2D3136",
"^+	c #2C3035",
"/+	c #53565A",
"(+	c #626363",
"_+	c #515457",
":+	c #4C4F54",
"<+	c #373B41",
"[+	c #3F4449",
"}+	c #353A3F",
"|+	c #5A5B5B",
"1+	c #595B5E",
"2+	c #4B4F53",
"3+	c #282C30",
"4+	c #0D0F12",
"5+	c #2F3337",
"6+	c #393D42",
"7+	c #494D51",
"8+	c #3A3F44",
"9+	c #1E2127",
"0+	c #303439",
"a+	c #2E3135",
"b+	c #666768",
"c+	c #686A6B",
"d+	c #6E6F6F",
"e+	c #4A4D52",
"f+	c #303438",
"g+	c #4C4F52",
"h+	c #4B4D4F",
"i+	c #5B5E60",
"j+	c #646567",
"k+	c #515356",
"l+	c #111315",
"m+	c #131519",
"n+	c #222529",
"o+	c #41454B",
"p+	c #3C4147",
"q+	c #34383E",
"r+	c #24282D",
"s+	c #32363C",
"t+	c #35393F",
"u+	c #2B2F34",
"v+	c #505358",
"w+	c #6C6D6D",
"x+	c #626364",
"y+	c #383B40",
"z+	c #656667",
"A+	c #3E3F41",
"B+	c #4F5255",
"C+	c #606163",
"D+	c #2C2E31",
"E+	c #15171B",
"F+	c #23272B",
"G+	c #35393E",
"H+	c #33373D",
"I+	c #54565A",
"J+	c #767777",
"K+	c #7C7C7C",
"L+	c #333537",
"M+	c #6B6B6B",
"N+	c #7D7D7D",
"O+	c #7B7B7B",
"P+	c #747475",
"Q+	c #5B5C5D",
"R+	c #26282A",
"S+	c #666769",
"T+	c #43464B",
"U+	c #181C21",
"V+	c #181B1F",
"W+	c #171A1F",
"X+	c #2D2F32",
"Y+	c #3B3E44",
"Z+	c #323436",
"`+	c #303234",
" @	c #282C33",
".@	c #2F3134",
"+@	c #444547",
"@@	c #363739",
"#@	c #6F6F71",
"$@	c #747575",
"%@	c #797A7A",
"&@	c #696A6A",
"*@	c #232528",
"=@	c #32363D",
"-@	c #2F333A",
";@	c #282C32",
">@	c #636466",
",@	c #4A4D4F",
"'@	c #303235",
")@	c #34383D",
"!@	c #727375",
"~@	c #464748",
"{@	c #333639",
"]@	c #5F5F61",
"^@	c #767778",
"/@	c #49494B",
"(@	c #202226",
"_@	c #353940",
":@	c #34383F",
"<@	c #1F2327",
"[@	c #2A2E34",
"}@	c #44474C",
"|@	c #4D4E50",
"1@	c #818182",
"2@	c #54575A",
"3@	c #757677",
"4@	c #333538",
"5@	c #6A6C6C",
"6@	c #3B4045",
"7@	c #36393C",
"8@	c #2F3339",
"9@	c #46494D",
"0@	c #3A3F45",
"a@	c #12161A",
"b@	c #414447",
"c@	c #4E4F51",
"d@	c #696A6B",
"e@	c #787879",
"f@	c #2B2E32",
"g@	c #5A5C5F",
"h@	c #57595D",
"i@	c #585A5E",
"j@	c #535559",
"k@	c #575A5D",
"l@	c #40454A",
"m@	c #292B2E",
"n@	c #45494D",
"o@	c #555759",
"p@	c #49494A",
"q@	c #7F7F80",
"r@	c #1D1F21",
"s@	c #15181C",
"t@	c #2E3339",
"u@	c #393E44",
"v@	c #5D5F61",
"w@	c #656768",
"x@	c #3B3F44",
"y@	c #696A6C",
"z@	c #212529",
"A@	c #25282E",
"B@	c #44494E",
"C@	c #58585A",
"D@	c #424346",
"E@	c #1F2225",
"F@	c #202225",
"G@	c #404245",
"H@	c #505257",
"I@	c #4D4F51",
"J@	c #3A3D42",
"K@	c #292D32",
"L@	c #42464C",
"M@	c #505356",
"N@	c #202123",
"O@	c #3E4349",
"P@	c #57595A",
"Q@	c #2E2F30",
"R@	c #35373C",
"S@	c #272A2F",
"T@	c #4F5154",
"U@	c #262A2E",
"V@	c #323336",
"W@	c #4B4F54",
"X@	c #525457",
"Y@	c #5C5E60",
"Z@	c #4F5155",
"`@	c #24292E",
" #	c #212429",
".#	c #404143",
"+#	c #686969",
"@#	c #0F1113",
"##	c #101216",
"$#	c #32363B",
"%#	c #757678",
"&#	c #717172",
"*#	c #3D4042",
"=#	c #484C50",
"-#	c #3C3F44",
";#	c #292D31",
">#	c #3F4143",
",#	c #4A4D51",
"'#	c #4F5052",
")#	c #444546",
"!#	c #2D2F31",
"~#	c #1B1E21",
"{#	c #1E2024",
"]#	c #7D7D7E",
"^#	c #363A41",
"/#	c #15171A",
"(#	c #1A1E24",
"_#	c #3C3F46",
":#	c #666869",
"<#	c #5D5E5F",
"[#	c #4A4E53",
"}#	c #2C2F31",
"|#	c #2C2F33",
"1#	c #43474B",
"2#	c #48494A",
"3#	c #57585A",
"4#	c #45484D",
"5#	c #5B5D60",
"6#	c #4C4F53",
"7#	c #777778",
"8#	c #37383A",
"9#	c #727374",
"0#	c #37393C",
"a#	c #4A4B4B",
"b#	c #6D6E6E",
"c#	c #41464B",
"d#	c #3C4045",
"e#	c #494A4B",
"f#	c #3C4146",
"g#	c #1D2125",
"h#	c #1F2328",
"i#	c #383C41",
"j#	c #2D3034",
"k#	c #393B3E",
"l#	c #37393B",
"m#	c #606264",
"n#	c #6C6C6D",
"o#	c #464648",
"p#	c #808080",
"q#	c #464A4E",
"r#	c #34363B",
"s#	c #545659",
"t#	c #1A1C20",
"u#	c #13161B",
"v#	c #3B4046",
"w#	c #1B1F22",
"x#	c #424345",
"y#	c #515255",
"z#	c #3B3E42",
"A#	c #414243",
"B#	c #4D4E4F",
"C#	c #5E6062",
"D#	c #3D4146",
"E#	c #707172",
"F#	c #5F6163",
"G#	c #757676",
"H#	c #383B3F",
"I#	c #171A1E",
"J#	c #121418",
"K#	c #1A1D20",
"L#	c #111317",
"M#	c #2A2B2D",
"N#	c #595A5D",
"O#	c #585B5E",
"P#	c #2F3439",
"Q#	c #292C30",
"R#	c #55585B",
"S#	c #4E5255",
"T#	c #111418",
"U#	c #363B40",
"V#	c #3B3D41",
"W#	c #4C5055",
"X#	c #3A3E42",
"Y#	c #424549",
"Z#	c #26282C",
"`#	c #656666",
" $	c #222629",
".$	c #3D4248",
"+$	c #3E4247",
"@$	c #33373E",
"#$	c #1E2227",
"$$	c #424344",
"%$	c #3D4043",
"&$	c #313234",
"*$	c #2F3032",
"=$	c #4B4C4E",
"-$	c #191B1D",
";$	c #262B31",
">$	c #1D1F23",
",$	c #313337",
"'$	c #5E5F62",
")$	c #55575B",
"!$	c #5D5E61",
"~$	c #1E2128",
"{$	c #202428",
"]$	c #3A3D43",
"^$	c #1B1F25",
"/$	c #565658",
"($	c #26292D",
"_$	c #636467",
":$	c #3E4348",
"<$	c #30343A",
"[$	c #111316",
"}$	c #656669",
"|$	c #707173",
"1$	c #1A1E22",
"2$	c #1B1D21",
"3$	c #4E5053",
"4$	c #3F4349",
"5$	c #383C43",
"6$	c #16181B",
"7$	c #4E4F52",
"8$	c #383A3B",
"9$	c #6A6B6D",
"0$	c #69696B",
"a$	c #34393E",
"b$	c #1C1F27",
"c$	c #505253",
"d$	c #3B3E43",
"e$	c #6D6D6E",
"f$	c #373A3D",
"g$	c #40444A",
"h$	c #292E35",
"i$	c #28292B",
"j$	c #474B4F",
"k$	c #636464",
"l$	c #282D33",
"m$	c #262A30",
"n$	c #2D2E30",
"o$	c #2F3236",
"p$	c #202329",
"q$	c #16181C",
"r$	c #31363C",
"s$	c #20252A",
"t$	c #21252B",
"u$	c #3A3B3D",
"v$	c #5C5D60",
"w$	c #646667",
"x$	c #0B0C0F",
"y$	c #090A0B",
"z$	c #0C0D10",
"A$	c #0E0F0F",
"B$	c #101317",
"C$	c #272A2E",
"D$	c #2B2D2F",
"E$	c #2A2C2E",
"F$	c #1A1D21",
"G$	c #070709",
"H$	c #07080A",
"I$	c #090A0C",
"J$	c #0A0C0F",
"K$	c #18191A",
"L$	c #1C1E21",
"M$	c #393A3C",
"N$	c #121317",
"    . + @ # $ % & * = -   ; > , ' ) ! ~     { ] = = ^ * /       ",
"( _ : < [ } | 1 2 3 4 5 6 7 8 9 0 a b c ' d c e f g h [ = i j   ",
"k l m n o ! p q r s t u v w x y z A B C D E F G l t x H I J K   ",
"L f M N O P Q R S T U V W X Y Z `  ...+.@.#.$.x m %.&.*.=.-.;.>.",
",.( '.).!.~.C {.Y ].^./.(.% -.t t _.:.<.[.}.|.1.2.3.4.).5.6.7.8.",
"9.0.a.b.c.d.e.f.2.` g.V h.i.j.k.l.m.n.o.p.q.r.s.t.u.v.w.q C x.y.",
"' z.A.B.C.D.E.F.G.H.I.J.K.L.M.N.O.P.Q.R.S.T.U.V.c U.W.Z W +.X.Y.",
"i._.W Z...`. +.+++} @+o #+C ;.$+%+X.&+R.^ *++.+.=+-+;+l >+R `.,+",
"'+)+=+!++.~+Z.{+]+^+b ..f /+(+|._+w.:+<+Q.+.Z.[+}+|+$+1+C 5 2+3+",
"4+5+6++.~+7+8+9+0+a+:+b+%.l c+d+2+5 _.e+f+g+r U t h+g.i+x j+k+l+",
"m+n+V.o+p+q+r+s+t+u+v+w+Z l.{./.t u l x+y+m l.%.%.z+A+B+C+b+D+  ",
"  [.=.E+F+G+C +.X.H+I+l.J+K+L+M+N+O+P+Q+R+D.m S+Z l g.T+U+V+W+  ",
"      X+H h h e+5.X.Y+6 Z+`+Q. @)..@+@@@& #@$@%.$+%@&@*@=@-@;@L ",
"    ]+b >@Z _. .,@K +.'@)@o Z.Z. .!@l.l.~@{@]@^@t /@(@_@p+_@:@<@",
"  [@}@|@1@/.t 2@Z _.3@4@+.~++.~+_.l s 5@;+y+6@7@8@^+7 9@C 0@C ~.",
"a@b@R c@G %.d@m l.%@e@f@#+P.R.o g@g.h@i@g.6+j@k@b [@C q l@+.[ m@",
"n.n@o@Z p@e@$+m q@m r@s@t@u@o+v@f.w@l@f t x@y@$+0 ).C +.:+B Q z@",
"A@B@..$+{.C@P+l.D@E@`.F@G@q ~+2@Y Y H@I@J@+._.g@p K@L@q 5@b+M@N@",
"% O@H $._._.P@Q@R@S@T@U@V@W@~+g@$+V Y X@k W Y@T Z@`@ #.#z++#`+@#",
"##$#H %#u b+&#*#{.=#-#+.]+;#>#,#'#)#!#~#{#+#]#z+)@U+).o x@^#s+/#",
"  (#_#:#1.%#<#'#d@%.x [#}#|#[ [ [ -.1#] 2#3#9@4#X.X+W 5#C n@c ~#",
"  u. #6#7#W 8#9#G.;+5#q 0#x %+W@~+X@c+a#b#g.0 c#d#e#%.Y X@b f#g#",
"  h#i#j#k#/#8#$@{.g@R q l#b#%.m#[#X@n#o#G.p#n#q#r#I@l _.s#b Z.t#",
"u#<+[#g H v#w#x#y#+.z#,+A#9#j+%+q `.>@B#_.l %.C#D#k#&#E#B e+O@l+",
"'+Z.F#G#P+B H#% I#J#K#L#M#t {.g@q 1+&@G@>@d@y@N#o P x+l O#q P#  ",
"Q#q 5#R#S#:+3 S.T#U#R.q+V#7#l T W#T >+I#X#Y#o+2 ^#U.Z#`#k@X.j.  ",
" $W@.$t+^#+$+.@$#$Z.f H+h@$$e#%$&$*$=$1.C+-$V+;$o.>$,$j#.@r+    ",
",.l@+.+.h@'$q =@#$)$%@e+!$T+{ ~${${.5#v g ]$V+^$E+/$Z #+[+c q.  ",
"  ($+.W#^._$:$<$[$'$j+}$|$+ 1$W+2$k 3$Z.4$5$6$7$8$9$0$[ 8 _$q+  ",
"    a$L@R#o ^#I#b$c$]#m d$E@e$>@f#K@f$g$h$( i$j$P k$t ~+g@Y a$  ",
"    / l$t+m$s@(#n$& o$p$q$c.>@r l@1 q$q+r$s$n+<+t$u$S+S v$w$P#  ",
"      x$y$z$  A$t#      B$C$D$|#E$F$G$        H$I$J$K$L$M$K#N$  "};
